<?xml version="1.0" standalone="no"?>
<!DOCTYPE svg PUBLIC "-//W3C//DTD SVG 20010904//EN"
 "http://www.w3.org/TR/2001/REC-SVG-20010904/DTD/svg10.dtd">
<svg version="1.0" xmlns="http://www.w3.org/2000/svg"
 width="260.000000pt" height="260.000000pt" viewBox="0 0 260.000000 260.000000"
 preserveAspectRatio="xMidYMid meet">
<metadata>
Created by potrace 1.11, written by Peter Selinger 2001-2013
</metadata>
<g transform="translate(0.000000,260.000000) scale(0.100000,-0.100000)"
fill="#000000" stroke="none">
<path d="M0 1300 l0 -1300 1300 0 1300 0 0 1300 0 1300 -1300 0 -1300 0 0
-1300z m2023 1110 c73 -11 170 -28 217 -38 l85 -18 3 -972 c1 -535 1 -972 0
-972 -2 0 -72 14 -157 30 -85 17 -156 30 -158 30 -1 0 -3 163 -3 362 l0 362
-30 -40 c-59 -81 -163 -131 -289 -140 -216 -16 -386 76 -474 256 -47 95 -64
166 -79 312 -28 275 41 496 207 664 167 169 353 214 678 164z"/>
<path d="M1725 2196 c-103 -25 -187 -109 -220 -221 -39 -130 -39 -443 -1 -571
35 -113 94 -164 191 -164 54 0 69 5 111 32 56 38 122 129 154 214 42 115 50
182 50 444 l0 250 -22 5 c-91 20 -119 24 -163 24 -27 0 -73 -6 -100 -13z"/>
</g>
</svg>
